<svg id="Layer_1" data-name="Layer 1" xmlns="http://www.w3.org/2000/svg" viewBox="0 0 1000 204"><defs><style>.cls-1{fill:#fff;}.cls-2{opacity:0.5;}</style></defs><title>nzif-logo-2017</title><path class="cls-1" d="M38,46.38,13.43,22.79,10.5,20.23V45.7H1.1V.19h.37L26,23.78l2.86,2.55V.87h9.46V46.38Z"/><path class="cls-1" d="M50.53,45.7V.87H79.36v8H60.12V19.11H76.43v7.72H60.12V37.67H80.29v8Z"/><path class="cls-1" d="M95.42.87l6.1,15.25c1.49,3.74,2.8,7.28,3.74,10.15.68-1.62,2.05-5.11,3.24-7.84L111,12.76l5.17-11.58h.37c3.8,8.53,8.53,18.74,10.83,25.09,1.62-4,7.28-18.55,9.9-25.4H148L127.86,46.38h-.44l-8.78-20c-.81-1.74-1.62-3.61-2.3-5.35-.68,1.74-1.49,3.61-2.24,5.35l-8.84,20h-.44L84.77.87Z"/><path class="cls-1" d="M187.13,8.9H167.39v-8h34.3L180,37.67h21v8H165.46Z"/><path class="cls-1" d="M210.73,45.7V.87h28.83v8H220.31V19.11h16.31v7.72H220.31V37.67h20.17v8Z"/><path class="cls-1" d="M266.38.19h.37L288.55,45.7h-10l-3.61-7.91H258.17l-3.49,7.91h-10Zm5.67,30.88c-2.05-4.67-4-9.4-5.42-13.32-1.31,3.11-3.67,9.09-5.54,13.32Z"/><path class="cls-1" d="M294.34,45.7V.87h9.59v36.8h17.25v8Z"/><path class="cls-1" d="M346.2.19h.37L368.37,45.7h-10l-3.61-7.91H338L334.5,45.7h-10Zm5.67,30.88c-2.05-4.67-4-9.4-5.42-13.32-1.31,3.11-3.67,9.09-5.54,13.32Z"/><path class="cls-1" d="M412.32,46.38l-24.59-23.6-2.93-2.55V45.7h-9.4V.19h.37l24.53,23.6,2.86,2.55V.87h9.46V46.38Z"/><path class="cls-1" d="M424.83,45.7V.87h14.32c15.25,0,24.9,9.28,24.9,22.41S454.47,45.7,439.28,45.7Zm9.59-36.8V37.67h4.73c9.59,0,15.25-6.23,15.25-14.38S448.74,8.9,439,8.9Z"/><g class="cls-2"><path class="cls-1" d="M531.13.87V45.7h-9.59V9h-5.85V.87Z"/><path class="cls-1" d="M561,45.7V36H539.23L554.29.87h9.28L552.05,28.08h9.15V17.68h8.09v10.4h5.6V36h-5.6V45.7Z"/><path class="cls-1" d="M581.63,24.47h31.69v7.28H581.63Z"/><path class="cls-1" d="M620.54,2.49A20,20,0,0,1,630.62,0c10.21,0,16.56,6.41,16.56,15.56,0,8.22-6,14.82-12,22h14V45.7H618.11c9.65-11.33,17.31-19.67,18.8-27.21a10.79,10.79,0,0,0,.06-4.67c-.69-3.11-3.43-5-7.53-5a17.16,17.16,0,0,0-8.9,2.62Z"/><path class="cls-1" d="M670.34.87V45.7h-9.59V9H654.9V.87Z"/><path class="cls-1" d="M717.1,0a23,23,0,0,1,23.47,23.28c0,13.07-9.9,23.28-23.47,23.28s-23.47-10.21-23.47-23.28A23,23,0,0,1,717.1,0Zm0,37.79c8.09,0,13.82-6.47,13.82-14.51S725.19,8.78,717.1,8.78s-13.82,6.54-13.82,14.51S709,37.79,717.1,37.79Z"/><path class="cls-1" d="M785.52,11.89a26.91,26.91,0,0,0-12.39-3.11c-9.09,0-14.82,6.54-14.82,14.51S764,37.79,772.82,37.79a28.39,28.39,0,0,0,13-3.11v8.9a30.92,30.92,0,0,1-13.7,3c-13.51,0-23.41-10.15-23.41-23.28S758.63,0,772.45,0a27.51,27.51,0,0,1,13.07,3.11Z"/><path class="cls-1" d="M812.92,8.9V45.7h-9.59V8.9H790.82v-8h34.68v8Z"/><path class="cls-1" d="M851.58,0a23,23,0,0,1,23.47,23.28c0,13.07-9.9,23.28-23.47,23.28s-23.47-10.21-23.47-23.28A23,23,0,0,1,851.58,0Zm0,37.79c8.09,0,13.82-6.47,13.82-14.51S859.67,8.78,851.58,8.78s-13.82,6.54-13.82,14.51S843.49,37.79,851.58,37.79Z"/><path class="cls-1" d="M917.33,32.62c0,8.59-7,13.07-17.06,13.07H884.45V.87H899c9.53,0,16.69,4.17,16.69,12.58a9.36,9.36,0,0,1-5.73,8.72A11.06,11.06,0,0,1,917.33,32.62Zm-18-13.07a13.4,13.4,0,0,0,3.61-.37c1.81-.68,3-2.43,3-4.92,0-3.74-2.55-5.73-6.35-5.73h-6v11ZM893.6,38h7.1c3.8,0,6.79-2.12,6.79-6s-2.74-6-6.16-6H893.6Z"/><path class="cls-1" d="M927,45.7V.87H955.8v8H936.56V19.11h16.31v7.72H936.56V37.67h20.17v8Z"/><path class="cls-1" d="M975.48,30V45.7h-9.4V.87h15.57c10.52,0,17.5,5.17,17.5,14.76a13.25,13.25,0,0,1-9,12.95l2.8,6.47c1.06,2.49,2.74,3.67,5,3.67a14.62,14.62,0,0,0,1.87-.19V46a12.66,12.66,0,0,1-4.11.56c-5,0-7.72-2.61-10.77-9.34L981.64,30Zm0-21.11V22.29h6.66c4.36,0,7.35-2.12,7.35-6.66s-3.11-6.72-7.59-6.72Z"/></g><path class="cls-1" d="M368.17,165.87h.31l17.86,37.31h-8.22l-3-6.48H361.44l-2.86,6.48h-8.22Zm4.64,25.31c-1.68-3.83-3.32-7.71-4.44-10.92-1.07,2.55-3,7.45-4.54,10.92Z"/><path class="cls-1" d="M411,173v8.78h12.25v6.48H411v14.9h-7.86V166.43h22.4V173Z"/><path class="cls-1" d="M433,203.18V166.43h23.63V173H440.84v8.37h13.37v6.33H440.84v8.88h16.54v6.58Z"/><path class="cls-1" d="M463.35,201.8v-7.55a24.09,24.09,0,0,0,9.24,2.65,13.36,13.36,0,0,0,3.27-.2c2.81-.41,4.44-1.48,4.44-3.27,0-2.45-2.19-3.73-7.25-5.56-6.43-2.35-10.21-5.05-10.21-11.43,0-6.53,5.41-10.72,13.32-10.72a25.26,25.26,0,0,1,9.59,1.84v7.25a18.81,18.81,0,0,0-9-2.25c-3.78,0-6.23,1.48-6.23,3.83,0,2.14,2,3.62,7,5.51,6.43,2.5,10.41,5.21,10.41,11.38,0,6.63-5,10.62-13.68,10.62A28.65,28.65,0,0,1,463.35,201.8Z"/><path class="cls-1" d="M510,173v30.16h-7.86V173H491.87v-6.58H520.3V173Z"/><path class="cls-1" d="M526.83,203.18V166.43h7.86v36.75Z"/><path class="cls-1" d="M558.47,203.74h-.31L540,166.43h8.57l4.8,10.62c1.89,4.24,3.57,7.86,4.85,11.43,1.07-2.6,3.32-7.81,4.95-11.43l4.8-10.62h8.52Z"/><path class="cls-1" d="M589.91,165.87h.31l17.86,37.31h-8.22l-3-6.48H583.17l-2.86,6.48h-8.22Zm4.64,25.31c-1.68-3.83-3.32-7.71-4.44-10.92-1.07,2.55-3,7.45-4.54,10.92Z"/><path class="cls-1" d="M613.84,203.18V166.43h7.86V196.6h14.14v6.58Z"/><path class="cls-1" d="M670.74,165.72a19.09,19.09,0,1,1-19.24,19.09A18.84,18.84,0,0,1,670.74,165.72Zm0,31c6.63,0,11.33-5.31,11.33-11.89s-4.7-11.89-11.33-11.89-11.33,5.36-11.33,11.89S664.11,196.7,670.74,196.7Z"/><path class="cls-1" d="M705.54,173v8.78h12.25v6.48H705.54v14.9h-7.86V166.43h22.4V173Z"/><path class="cls-1" d="M748,184.19l-1.94-1.68v20.67h-7.5V165.87h.15l17.5,17.66,17.51-17.66h.15v37.31h-7.5V182.51l-1.94,1.68c-2.7,3-5.46,5.92-8.22,8.83C753.46,190.11,750.76,187.15,748,184.19Z"/><path class="cls-1" d="M800.77,165.72a19.09,19.09,0,1,1-19.24,19.09A18.84,18.84,0,0,1,800.77,165.72Zm0,31c6.63,0,11.33-5.31,11.33-11.89s-4.7-11.89-11.33-11.89-11.33,5.36-11.33,11.89S794.14,196.7,800.77,196.7Z"/><path class="cls-1" d="M837.16,184.19l-1.94-1.68v20.67h-7.5V165.87h.15l17.5,17.66,17.51-17.66H863v37.31h-7.5V182.51l-1.94,1.68c-2.7,3-5.46,5.92-8.22,8.83C842.62,190.11,839.91,187.15,837.16,184.19Z"/><path class="cls-1" d="M873,203.18V166.43h23.63V173H880.89v8.37h13.37v6.33H880.89v8.88h16.54v6.58Z"/><path class="cls-1" d="M935.34,203.74,915.18,184.4l-2.4-2.09v20.87h-7.71V165.87h.31l20.11,19.34,2.35,2.09V166.43h7.76v37.31Z"/><path class="cls-1" d="M960.25,173v30.16h-7.86V173H942.13v-6.58h28.43V173Z"/><path class="cls-1" d="M975.4,201.8v-7.55a24.09,24.09,0,0,0,9.24,2.65,13.37,13.37,0,0,0,3.27-.2c2.81-.41,4.44-1.48,4.44-3.27,0-2.45-2.19-3.73-7.25-5.56-6.43-2.35-10.21-5.05-10.21-11.43,0-6.53,5.41-10.72,13.32-10.72a25.26,25.26,0,0,1,9.6,1.84v7.25a18.81,18.81,0,0,0-9-2.25c-3.78,0-6.23,1.48-6.23,3.83,0,2.14,2,3.62,7,5.51,6.43,2.5,10.41,5.21,10.41,11.38,0,6.63-5,10.62-13.68,10.62A28.66,28.66,0,0,1,975.4,201.8Z"/><path class="cls-1" d="M23,148H0V68.84H23Z"/><path class="cls-1" d="M62.92,111.52V148H41V67.74h.55L81.07,100.3l39.38-32.56h.66V148h-22V111.52l-18,14.63Z"/><path class="cls-1" d="M199.86,96.67c0,18.92-14.08,27.83-33.77,27.83H162V148H139V68.84h27.06C185.78,68.84,199.86,77.86,199.86,96.67ZM162,88.2v16.94h5.28c5,0,9.35-2.09,9.35-8.47s-4.4-8.47-9.35-8.47Z"/><path class="cls-1" d="M274.66,96.67c0,9.79-4.29,18-13.2,22.55,15.84,37,41.47,47.08,66.11,47.08,7.81,0,15.18-1,19.69-2.53l-10.82,22.55s-6.75.66-10,.66c-35.2,0-66.77-16.17-84.81-63.58h-7.59V148H211.63V68.84h29.26C260.69,68.84,274.66,78,274.66,96.67ZM234.07,88.2v16.94h8.58c4.95,0,8.8-2,8.8-8.47,0-6.27-3.85-8.47-8.8-8.47Z"/><path class="cls-1" d="M327.34,67.19c25,0,42.35,18.59,42.35,41.25,0,23-17.38,41.25-42.35,41.25s-42.24-18.26-42.24-41.25C285.1,85.78,302.48,67.19,327.34,67.19Zm0,61.49c11.66,0,19.14-9.57,19.14-20.24C346.48,98,339,88.2,327.34,88.2S308.2,98,308.2,108.44C308.2,119.11,315.79,128.68,327.34,128.68Z"/><path class="cls-1" d="M430.41,68.84h25.3l-41.36,80.3h-1.1l-41.47-80.3h25.41l9.79,21c2.75,5.83,5.61,12.32,6.71,16.39h.22c1.1-4.07,4-10.56,6.71-16.39Z"/><path class="cls-1" d="M487.82,68.84h50.27V88.2H510.81V100h23v18.81h-23V148h-23Z"/><path class="cls-1" d="M551.51,68.84h53V88.2h-30V98.76h25.74v18.15H574.49v11.77h31.68V148H551.51Z"/><path class="cls-1" d="M674.48,125.6c0,15.07-11.22,24.09-31.9,24.09-8.91,0-18-1.65-24.2-4.29v-22a50.64,50.64,0,0,0,23,6.27c6.93,0,10.67-1.21,10.67-4.07,0-3.3-5.17-4.84-13.64-8.14-12.76-4.95-21.78-10.23-21.78-25.41,0-14.85,12.21-24.86,31-24.86,7.92,0,16.06,1.43,21.56,3.74V92C664.36,88.86,657,87,649.62,87c-6.49,0-10.45,1.87-10.45,5.06,0,2.86,4.84,4.84,12.87,8.14C664.8,105.47,674.48,110.86,674.48,125.6Z"/><path class="cls-1" d="M744.11,68.84V88.2H723.87V148h-23.1V88.2H680.53V68.84Z"/><path class="cls-1" d="M779.41,148h-23V68.84h23Z"/><path class="cls-1" d="M846.95,68.84h25.3l-41.36,80.3h-1.1l-41.47-80.3h25.41l9.79,21c2.75,5.83,5.61,12.32,6.71,16.39h.22c1.1-4.07,4-10.56,6.71-16.39Z"/><path class="cls-1" d="M910.74,137.59H886.65L881.81,148H857.94l40.26-80.3h1.1L939.56,148H915.69Zm-17.71-15h11.44c-2-4.62-4.95-11.88-5.61-14.74h-.22C898,110.75,895,118,893,122.63Z"/><path class="cls-1" d="M949.68,148V68.84h23v59.84h27.06V148Z"/></svg>