<?xml version="1.0" standalone="no"?>
<!DOCTYPE svg PUBLIC "-//W3C//DTD SVG 20010904//EN"
 "http://www.w3.org/TR/2001/REC-SVG-20010904/DTD/svg10.dtd">
<svg version="1.0" xmlns="http://www.w3.org/2000/svg"
 width="618.000000pt" height="618.000000pt" viewBox="0 0 618.000000 618.000000"
 preserveAspectRatio="xMidYMid meet">
<metadata>
Created by potrace 1.11, written by Peter Selinger 2001-2013
</metadata>
<g transform="translate(0.000000,618.000000) scale(0.100000,-0.100000)"
fill="#000000" stroke="none">
<path d="M615 5565 l-25 -24 0 -1116 c0 -1102 0 -1115 20 -1135 25 -25 4 -22
198 -24 161 -1 164 -1 188 23 l24 24 1 611 1 611 202 -605 c111 -333 208 -615
216 -628 21 -32 57 -38 220 -37 161 1 186 6 196 38 5 12 9 517 9 1122 1 1151
2 1143 -40 1159 -9 3 -89 6 -178 6 -168 -1 -183 -4 -204 -45 -6 -13 -9 -236
-9 -598 1 -319 -2 -581 -5 -583 -4 -2 -10 13 -14 34 -4 20 -10 41 -13 47 -4 5
-7 15 -9 20 -1 6 -26 89 -56 185 -182 580 -251 801 -264 844 -8 26 -26 59 -40
72 -25 23 -30 24 -210 24 -182 0 -184 0 -208 -25z"/>
<path d="M2180 5583 c-37 -14 -74 -49 -90 -86 -17 -37 -18 -162 -18 -2410 0
-2304 0 -2372 19 -2408 10 -21 33 -48 51 -61 l33 -23 365 0 365 0 33 23 c18
13 40 38 49 55 16 30 17 197 18 2412 l0 2380 -20 39 c-12 22 -33 49 -49 60
-26 20 -40 21 -384 23 -196 1 -364 -1 -372 -4z"/>
<path d="M3302 5573 c-18 -9 -45 -32 -60 -51 l-27 -35 -3 -2366 c-1 -1600 1
-2380 8 -2409 6 -23 20 -54 33 -68 45 -52 62 -54 431 -54 327 0 342 1 375 21
19 11 40 27 48 34 38 39 39 59 39 1023 -1 925 -1 932 19 933 11 0 257 1 546 2
l526 2 36 28 c68 51 68 56 65 418 l-3 324 -24 34 c-50 69 -47 69 -616 69 -280
0 -519 1 -530 1 -20 1 -20 7 -19 614 1 336 2 614 3 617 0 3 300 5 664 5 l664
0 40 27 c72 47 73 55 73 415 0 360 -1 368 -76 410 l-39 23 -1070 0 c-970 0
-1073 -2 -1103 -17z"/>
<path d="M650 3037 c-47 -12 -54 -37 -55 -202 -2 -164 7 -209 47 -224 13 -5
178 -9 368 -9 190 0 351 -1 357 -1 8 -1 -7 -38 -36 -93 -26 -51 -130 -255
-231 -453 -100 -198 -255 -502 -344 -675 l-161 -315 -3 -212 -3 -212 25 -26
25 -25 578 0 c318 0 587 3 598 6 42 11 49 39 50 214 l1 165 -27 27 -27 28
-366 0 c-201 0 -366 3 -366 6 0 3 161 326 357 717 196 392 373 744 392 782
l34 70 2 192 c1 181 0 194 -20 219 l-21 26 -572 2 c-315 0 -585 -2 -602 -7z"/>
</g>
</svg>
