<?xml version="1.0" standalone="no"?>
<!DOCTYPE svg PUBLIC "-//W3C//DTD SVG 20010904//EN"
 "http://www.w3.org/TR/2001/REC-SVG-20010904/DTD/svg10.dtd">
<svg version="1.0" xmlns="http://www.w3.org/2000/svg"
 width="618.000000pt" height="618.000000pt" viewBox="0 0 618.000000 618.000000"
 preserveAspectRatio="xMidYMid meet">
<metadata>
Created by potrace 1.11, written by Peter Selinger 2001-2013
</metadata>
<g transform="translate(0.000000,618.000000) scale(0.100000,-0.100000)"
fill="#000000" stroke="none">
<path d="M795 5081 c-30 -13 -64 -54 -73 -87 -5 -16 -8 -877 -7 -1914 0 -2063
-4 -1931 60 -1970 30 -19 49 -20 305 -20 300 0 320 3 354 61 17 30 18 83 18
1086 0 580 1 1053 2 1051 2 -1 24 -64 48 -138 541 -1624 654 -1959 667 -1980
47 -77 61 -80 372 -80 299 0 313 2 349 63 20 31 20 65 20 1930 0 2089 4 1946
-62 1987 -31 19 -50 20 -306 20 -185 0 -280 -4 -295 -11 -33 -18 -55 -42 -66
-72 -8 -19 -11 -354 -12 -1055 l0 -1027 -24 75 c-80 258 -346 1108 -410 1315
-24 77 -69 221 -100 320 -32 99 -61 194 -65 210 -32 119 -64 187 -105 217 -30
23 -34 23 -340 25 -171 1 -319 -2 -330 -6z"/>
<path d="M3465 5074 c-16 -8 -39 -27 -50 -42 -18 -25 -19 -44 -19 -297 0 -296
0 -300 62 -341 25 -17 67 -18 614 -19 322 0 590 -3 594 -7 4 -4 2 -13 -3 -20
-6 -7 -106 -202 -223 -433 -117 -231 -268 -528 -335 -660 -67 -132 -211 -415
-320 -630 -109 -214 -237 -467 -285 -561 -48 -94 -93 -186 -100 -205 -10 -25
-14 -118 -15 -349 -2 -285 -1 -318 15 -350 38 -75 -32 -70 1020 -70 1048 0
988 -4 1027 68 18 34 20 55 19 298 -2 254 -2 261 -24 289 -50 63 -10 60 -662
60 -327 0 -596 4 -598 8 -3 7 289 593 984 1974 155 309 286 581 291 605 5 24
9 172 8 329 -1 253 -3 289 -18 312 -39 59 10 57 -1014 57 -820 0 -942 -2 -968
-16z"/>
</g>
</svg>
