<svg id="Layer_1" data-name="Layer 1" xmlns="http://www.w3.org/2000/svg" viewBox="0 0 48 48"><defs><style>.cls-1{fill:#fff;}</style></defs><title>instagram</title><path class="cls-1" d="M24,4.64c6.31,0,7.05,0,9.54.14a13.07,13.07,0,0,1,4.39.81,7.32,7.32,0,0,1,2.72,1.77,7.32,7.32,0,0,1,1.77,2.72,13.07,13.07,0,0,1,.81,4.39c.11,2.49.14,3.24.14,9.54s0,7.05-.14,9.54a13.07,13.07,0,0,1-.81,4.39,7.82,7.82,0,0,1-4.48,4.48,13.07,13.07,0,0,1-4.39.81c-2.49.11-3.24.14-9.54.14s-7.05,0-9.54-.14a13.07,13.07,0,0,1-4.39-.81,7.32,7.32,0,0,1-2.72-1.77,7.32,7.32,0,0,1-1.77-2.72,13.07,13.07,0,0,1-.81-4.39c-.11-2.49-.14-3.24-.14-9.54s0-7.05.14-9.54a13.07,13.07,0,0,1,.81-4.39A7.32,7.32,0,0,1,7.36,7.36a7.32,7.32,0,0,1,2.72-1.77,13.07,13.07,0,0,1,4.39-.81c2.49-.11,3.24-.14,9.54-.14M24,.38c-6.41,0-7.22,0-9.74.14a17.33,17.33,0,0,0-5.73,1.1A11.58,11.58,0,0,0,4.35,4.35,11.58,11.58,0,0,0,1.62,8.53a17.33,17.33,0,0,0-1.1,5.73C.41,16.78.38,17.59.38,24s0,7.22.14,9.74a17.33,17.33,0,0,0,1.1,5.73,11.58,11.58,0,0,0,2.72,4.18,11.58,11.58,0,0,0,4.18,2.72,17.33,17.33,0,0,0,5.73,1.1c2.52.11,3.32.14,9.74.14s7.22,0,9.74-.14a17.33,17.33,0,0,0,5.73-1.1,12.08,12.08,0,0,0,6.91-6.91,17.33,17.33,0,0,0,1.1-5.73c.11-2.52.14-3.32.14-9.74s0-7.22-.14-9.74a17.33,17.33,0,0,0-1.1-5.73,11.58,11.58,0,0,0-2.72-4.18,11.58,11.58,0,0,0-4.18-2.72A17.33,17.33,0,0,0,33.74.52C31.22.41,30.41.38,24,.38Z"/><path class="cls-1" d="M24,11.87A12.13,12.13,0,1,0,36.13,24,12.13,12.13,0,0,0,24,11.87Zm0,20A7.87,7.87,0,1,1,31.87,24,7.87,7.87,0,0,1,24,31.87Z"/><circle class="cls-1" cx="36.61" cy="11.39" r="2.83"/></svg>