<svg id="Layer_1" data-name="Layer 1" xmlns="http://www.w3.org/2000/svg" viewBox="0 0 48 48"><defs><style>.cls-1{fill:#fff;}</style></defs><title>twitter</title><path class="cls-1" d="M15.72,42.14c16.85,0,26.06-14,26.06-26.06,0-.4,0-.79,0-1.18a18.64,18.64,0,0,0,4.57-4.74,18.28,18.28,0,0,1-5.26,1.44,9.19,9.19,0,0,0,4-5.07,18.36,18.36,0,0,1-5.82,2.22,9.17,9.17,0,0,0-15.61,8.35A26,26,0,0,1,4.78,7.54,9.17,9.17,0,0,0,7.62,19.76a9.09,9.09,0,0,1-4.15-1.15s0,.08,0,.12a9.16,9.16,0,0,0,7.35,9,9.15,9.15,0,0,1-4.14.16,9.17,9.17,0,0,0,8.56,6.36A18.38,18.38,0,0,1,3.86,38.15,18.65,18.65,0,0,1,1.68,38a25.93,25.93,0,0,0,14,4.11"/></svg>